<svg width="30" height="32" viewBox="0 0 30 32" fill="none" xmlns="http://www.w3.org/2000/svg">
<path d="M10.5024 23.5H5.40905C3.52141 23.5 2.57759 23.5 2.37901 23.3534C2.15591 23.1888 2.1014 23.0916 2.07724 22.8153C2.05574 22.5695 2.63421 21.6229 3.79115 19.7299C4.98567 17.7753 5.99997 14.9293 5.99997 10.9C5.99997 8.67218 6.94818 6.53561 8.63601 4.9603C10.3238 3.385 12.613 2.5 15 2.5C17.3869 2.5 19.6761 3.385 21.3639 4.9603C23.0518 6.53561 24 8.67218 24 10.9C24 14.9293 25.0143 17.7753 26.2088 19.7299C27.3657 21.6229 27.9442 22.5695 27.9227 22.8153C27.8985 23.0916 27.844 23.1888 27.6209 23.3534C27.4224 23.5 26.4785 23.5 24.5909 23.5H19.5M10.5024 23.5L10.5 25C10.5 27.4853 12.5147 29.5 15 29.5C17.4853 29.5 19.5 27.4853 19.5 25V23.5M10.5024 23.5H19.5" stroke="white" stroke-width="4" stroke-linecap="round" stroke-linejoin="round"/>
</svg>
